<svg id="visual" viewBox="0 0 1920 1080" width="1920" height="1080" xmlns="http://www.w3.org/2000/svg" xmlns:xlink="http://www.w3.org/1999/xlink" version="1.1"><rect x="0" y="0" width="1920" height="1080" fill="#f3f4f6"></rect><defs><linearGradient id="grad1_0" x1="43.8%" y1="0%" x2="100%" y2="100%"><stop offset="14.444444444444446%" stop-color="#f3f4f6" stop-opacity="1"></stop><stop offset="85.55555555555554%" stop-color="#f3f4f6" stop-opacity="1"></stop></linearGradient></defs><defs><linearGradient id="grad2_0" x1="0%" y1="0%" x2="56.3%" y2="100%"><stop offset="14.444444444444446%" stop-color="#f3f4f6" stop-opacity="1"></stop><stop offset="85.55555555555554%" stop-color="#f3f4f6" stop-opacity="1"></stop></linearGradient></defs><g transform="translate(1920, 0)"><path d="M0 702C-92.8 680.9 -185.6 659.9 -253.7 612.5C-321.9 565.2 -365.4 491.6 -434.9 434.9C-504.3 378.1 -599.7 338.3 -648.6 268.6C-697.4 199 -699.7 99.5 -702 0L0 0Z" fill="#a3e635"></path></g><g transform="translate(0, 1080)"><path d="M0 -702C92.5 -693.8 185 -685.7 268.6 -648.6C352.3 -611.4 427.1 -545.3 470.2 -470.2C513.3 -395.1 524.7 -311 558 -231.1C591.4 -151.3 646.7 -75.6 702 0L0 0Z" fill="#a3e635"></path></g></svg>