<svg id="visual" viewBox="0 0 1920 1080" width="1920" height="1080" xmlns="http://www.w3.org/2000/svg" xmlns:xlink="http://www.w3.org/1999/xlink" version="1.1"><rect x="0" y="0" width="1920" height="1080" fill="#f3f4f6"></rect><defs><linearGradient id="grad1_0" x1="43.8%" y1="0%" x2="100%" y2="100%"><stop offset="14.444444444444446%" stop-color="#0ea5e9" stop-opacity="1"></stop><stop offset="85.55555555555554%" stop-color="#0ea5e9" stop-opacity="1"></stop></linearGradient></defs><defs><linearGradient id="grad1_1" x1="43.8%" y1="0%" x2="100%" y2="100%"><stop offset="14.444444444444446%" stop-color="#0ea5e9" stop-opacity="1"></stop><stop offset="85.55555555555554%" stop-color="#60b1ec" stop-opacity="1"></stop></linearGradient></defs><defs><linearGradient id="grad1_2" x1="43.8%" y1="0%" x2="100%" y2="100%"><stop offset="14.444444444444446%" stop-color="#88bdef" stop-opacity="1"></stop><stop offset="85.55555555555554%" stop-color="#60b1ec" stop-opacity="1"></stop></linearGradient></defs><defs><linearGradient id="grad1_3" x1="43.8%" y1="0%" x2="100%" y2="100%"><stop offset="14.444444444444446%" stop-color="#88bdef" stop-opacity="1"></stop><stop offset="85.55555555555554%" stop-color="#a7caf1" stop-opacity="1"></stop></linearGradient></defs><defs><linearGradient id="grad1_4" x1="43.8%" y1="0%" x2="100%" y2="100%"><stop offset="14.444444444444446%" stop-color="#c3d7f3" stop-opacity="1"></stop><stop offset="85.55555555555554%" stop-color="#a7caf1" stop-opacity="1"></stop></linearGradient></defs><defs><linearGradient id="grad1_5" x1="43.8%" y1="0%" x2="100%" y2="100%"><stop offset="14.444444444444446%" stop-color="#c3d7f3" stop-opacity="1"></stop><stop offset="85.55555555555554%" stop-color="#dce5f5" stop-opacity="1"></stop></linearGradient></defs><defs><linearGradient id="grad1_6" x1="43.8%" y1="0%" x2="100%" y2="100%"><stop offset="14.444444444444446%" stop-color="#f3f4f6" stop-opacity="1"></stop><stop offset="85.55555555555554%" stop-color="#dce5f5" stop-opacity="1"></stop></linearGradient></defs><defs><linearGradient id="grad2_0" x1="0%" y1="0%" x2="56.3%" y2="100%"><stop offset="14.444444444444446%" stop-color="#0ea5e9" stop-opacity="1"></stop><stop offset="85.55555555555554%" stop-color="#0ea5e9" stop-opacity="1"></stop></linearGradient></defs><defs><linearGradient id="grad2_1" x1="0%" y1="0%" x2="56.3%" y2="100%"><stop offset="14.444444444444446%" stop-color="#60b1ec" stop-opacity="1"></stop><stop offset="85.55555555555554%" stop-color="#0ea5e9" stop-opacity="1"></stop></linearGradient></defs><defs><linearGradient id="grad2_2" x1="0%" y1="0%" x2="56.3%" y2="100%"><stop offset="14.444444444444446%" stop-color="#60b1ec" stop-opacity="1"></stop><stop offset="85.55555555555554%" stop-color="#88bdef" stop-opacity="1"></stop></linearGradient></defs><defs><linearGradient id="grad2_3" x1="0%" y1="0%" x2="56.3%" y2="100%"><stop offset="14.444444444444446%" stop-color="#a7caf1" stop-opacity="1"></stop><stop offset="85.55555555555554%" stop-color="#88bdef" stop-opacity="1"></stop></linearGradient></defs><defs><linearGradient id="grad2_4" x1="0%" y1="0%" x2="56.3%" y2="100%"><stop offset="14.444444444444446%" stop-color="#a7caf1" stop-opacity="1"></stop><stop offset="85.55555555555554%" stop-color="#c3d7f3" stop-opacity="1"></stop></linearGradient></defs><defs><linearGradient id="grad2_5" x1="0%" y1="0%" x2="56.3%" y2="100%"><stop offset="14.444444444444446%" stop-color="#dce5f5" stop-opacity="1"></stop><stop offset="85.55555555555554%" stop-color="#c3d7f3" stop-opacity="1"></stop></linearGradient></defs><defs><linearGradient id="grad2_6" x1="0%" y1="0%" x2="56.3%" y2="100%"><stop offset="14.444444444444446%" stop-color="#dce5f5" stop-opacity="1"></stop><stop offset="85.55555555555554%" stop-color="#f3f4f6" stop-opacity="1"></stop></linearGradient></defs><g transform="translate(1920, 0)"><path d="M0 810C-121.3 754.9 -242.5 699.7 -369 639.1C-495.5 578.5 -627.1 512.4 -701.5 405C-775.8 297.6 -792.9 148.8 -810 0L0 0Z" fill="#e8edf5"></path><path d="M0 694.3C-103.9 647 -207.9 599.8 -316.3 547.8C-424.7 495.9 -537.5 439.2 -601.3 347.1C-665 255.1 -679.6 127.5 -694.3 0L0 0Z" fill="#d0def4"></path><path d="M0 578.6C-86.6 539.2 -173.2 499.8 -263.6 456.5C-353.9 413.2 -447.9 366 -501.1 289.3C-554.2 212.5 -566.4 106.3 -578.6 0L0 0Z" fill="#b6d1f2"></path><path d="M0 462.9C-69.3 431.4 -138.6 399.8 -210.9 365.2C-283.1 330.6 -358.4 292.8 -400.8 231.4C-443.3 170 -453.1 85 -462.9 0L0 0Z" fill="#98c4f0"></path><path d="M0 347.1C-52 323.5 -103.9 299.9 -158.1 273.9C-212.3 247.9 -268.8 219.6 -300.6 173.6C-332.5 127.5 -339.8 63.8 -347.1 0L0 0Z" fill="#75b7ee"></path><path d="M0 231.4C-34.6 215.7 -69.3 199.9 -105.4 182.6C-141.6 165.3 -179.2 146.4 -200.4 115.7C-221.7 85 -226.5 42.5 -231.4 0L0 0Z" fill="#44abeb"></path><path d="M0 115.7C-17.3 107.8 -34.6 100 -52.7 91.3C-70.8 82.6 -89.6 73.2 -100.2 57.9C-110.8 42.5 -113.3 21.3 -115.7 0L0 0Z" fill="#0ea5e9"></path></g><g transform="translate(0, 1080)"><path d="M0 -810C84.7 -691.6 169.5 -573.2 300.5 -520.5C431.5 -467.8 608.8 -480.8 701.5 -405C794.1 -329.2 802.1 -164.6 810 0L0 0Z" fill="#e8edf5"></path><path d="M0 -694.3C72.6 -592.8 145.3 -491.3 257.6 -446.1C369.9 -401 521.9 -412.1 601.3 -347.1C680.7 -282.2 687.5 -141.1 694.3 0L0 0Z" fill="#d0def4"></path><path d="M0 -578.6C60.5 -494 121.1 -409.4 214.6 -371.8C308.2 -334.1 434.9 -343.4 501.1 -289.3C567.2 -235.1 572.9 -117.6 578.6 0L0 0Z" fill="#b6d1f2"></path><path d="M0 -462.9C48.4 -395.2 96.8 -327.5 171.7 -297.4C246.6 -267.3 347.9 -274.7 400.8 -231.4C453.8 -188.1 458.3 -94.1 462.9 0L0 0Z" fill="#98c4f0"></path><path d="M0 -347.1C36.3 -296.4 72.6 -245.6 128.8 -223.1C184.9 -200.5 260.9 -206.1 300.6 -173.6C340.3 -141.1 343.7 -70.5 347.1 0L0 0Z" fill="#75b7ee"></path><path d="M0 -231.4C24.2 -197.6 48.4 -163.8 85.9 -148.7C123.3 -133.7 174 -137.4 200.4 -115.7C226.9 -94.1 229.2 -47 231.4 0L0 0Z" fill="#44abeb"></path><path d="M0 -115.7C12.1 -98.8 24.2 -81.9 42.9 -74.4C61.6 -66.8 87 -68.7 100.2 -57.9C113.4 -47 114.6 -23.5 115.7 0L0 0Z" fill="#0ea5e9"></path></g></svg>