<svg id="visual" viewBox="0 0 1920 1080" width="1920" height="1080" xmlns="http://www.w3.org/2000/svg" xmlns:xlink="http://www.w3.org/1999/xlink" version="1.1"><rect x="0" y="0" width="1920" height="1080" fill="#fff"></rect><defs><linearGradient id="grad1_0" x1="43.8%" y1="0%" x2="100%" y2="100%"><stop offset="14.444444444444446%" stop-color="#2563eb" stop-opacity="1"></stop><stop offset="85.55555555555554%" stop-color="#2563eb" stop-opacity="1"></stop></linearGradient></defs><defs><linearGradient id="grad1_1" x1="43.8%" y1="0%" x2="100%" y2="100%"><stop offset="14.444444444444446%" stop-color="#2563eb" stop-opacity="1"></stop><stop offset="85.55555555555554%" stop-color="#5d77ef" stop-opacity="1"></stop></linearGradient></defs><defs><linearGradient id="grad1_2" x1="43.8%" y1="0%" x2="100%" y2="100%"><stop offset="14.444444444444446%" stop-color="#808cf2" stop-opacity="1"></stop><stop offset="85.55555555555554%" stop-color="#5d77ef" stop-opacity="1"></stop></linearGradient></defs><defs><linearGradient id="grad1_3" x1="43.8%" y1="0%" x2="100%" y2="100%"><stop offset="14.444444444444446%" stop-color="#808cf2" stop-opacity="1"></stop><stop offset="85.55555555555554%" stop-color="#9da2f5" stop-opacity="1"></stop></linearGradient></defs><defs><linearGradient id="grad1_4" x1="43.8%" y1="0%" x2="100%" y2="100%"><stop offset="14.444444444444446%" stop-color="#b7b8f8" stop-opacity="1"></stop><stop offset="85.55555555555554%" stop-color="#9da2f5" stop-opacity="1"></stop></linearGradient></defs><defs><linearGradient id="grad1_5" x1="43.8%" y1="0%" x2="100%" y2="100%"><stop offset="14.444444444444446%" stop-color="#b7b8f8" stop-opacity="1"></stop><stop offset="85.55555555555554%" stop-color="#d0cffb" stop-opacity="1"></stop></linearGradient></defs><defs><linearGradient id="grad1_6" x1="43.8%" y1="0%" x2="100%" y2="100%"><stop offset="14.444444444444446%" stop-color="#e8e7fd" stop-opacity="1"></stop><stop offset="85.55555555555554%" stop-color="#d0cffb" stop-opacity="1"></stop></linearGradient></defs><defs><linearGradient id="grad1_7" x1="43.8%" y1="0%" x2="100%" y2="100%"><stop offset="14.444444444444446%" stop-color="#e8e7fd" stop-opacity="1"></stop><stop offset="85.55555555555554%" stop-color="#ffffff" stop-opacity="1"></stop></linearGradient></defs><defs><linearGradient id="grad2_0" x1="0%" y1="0%" x2="56.3%" y2="100%"><stop offset="14.444444444444446%" stop-color="#2563eb" stop-opacity="1"></stop><stop offset="85.55555555555554%" stop-color="#2563eb" stop-opacity="1"></stop></linearGradient></defs><defs><linearGradient id="grad2_1" x1="0%" y1="0%" x2="56.3%" y2="100%"><stop offset="14.444444444444446%" stop-color="#5d77ef" stop-opacity="1"></stop><stop offset="85.55555555555554%" stop-color="#2563eb" stop-opacity="1"></stop></linearGradient></defs><defs><linearGradient id="grad2_2" x1="0%" y1="0%" x2="56.3%" y2="100%"><stop offset="14.444444444444446%" stop-color="#5d77ef" stop-opacity="1"></stop><stop offset="85.55555555555554%" stop-color="#808cf2" stop-opacity="1"></stop></linearGradient></defs><defs><linearGradient id="grad2_3" x1="0%" y1="0%" x2="56.3%" y2="100%"><stop offset="14.444444444444446%" stop-color="#9da2f5" stop-opacity="1"></stop><stop offset="85.55555555555554%" stop-color="#808cf2" stop-opacity="1"></stop></linearGradient></defs><defs><linearGradient id="grad2_4" x1="0%" y1="0%" x2="56.3%" y2="100%"><stop offset="14.444444444444446%" stop-color="#9da2f5" stop-opacity="1"></stop><stop offset="85.55555555555554%" stop-color="#b7b8f8" stop-opacity="1"></stop></linearGradient></defs><defs><linearGradient id="grad2_5" x1="0%" y1="0%" x2="56.3%" y2="100%"><stop offset="14.444444444444446%" stop-color="#d0cffb" stop-opacity="1"></stop><stop offset="85.55555555555554%" stop-color="#b7b8f8" stop-opacity="1"></stop></linearGradient></defs><defs><linearGradient id="grad2_6" x1="0%" y1="0%" x2="56.3%" y2="100%"><stop offset="14.444444444444446%" stop-color="#d0cffb" stop-opacity="1"></stop><stop offset="85.55555555555554%" stop-color="#e8e7fd" stop-opacity="1"></stop></linearGradient></defs><defs><linearGradient id="grad2_7" x1="0%" y1="0%" x2="56.3%" y2="100%"><stop offset="14.444444444444446%" stop-color="#ffffff" stop-opacity="1"></stop><stop offset="85.55555555555554%" stop-color="#e8e7fd" stop-opacity="1"></stop></linearGradient></defs><g transform="translate(1920, 0)"><path d="M0 972C-127.3 958.9 -254.6 945.8 -372 898C-489.4 850.2 -596.9 767.8 -668.9 668.9C-741 570.1 -777.6 454.8 -822.3 340.6C-866.9 226.4 -919.4 113.2 -972 0L0 0Z" fill="#f4f3fe"></path><path d="M0 850.5C-111.4 839 -222.8 827.6 -325.5 785.8C-428.2 744 -522.2 671.8 -585.3 585.3C-648.4 498.8 -680.4 398 -719.5 298C-758.5 198.1 -804.5 99 -850.5 0L0 0Z" fill="#dcdbfc"></path><path d="M0 729C-95.5 719.2 -190.9 709.3 -279 673.5C-367 637.7 -447.6 575.8 -501.7 501.7C-555.7 427.6 -583.2 341.1 -616.7 255.4C-650.1 169.8 -689.6 84.9 -729 0L0 0Z" fill="#c4c4fa"></path><path d="M0 607.5C-79.6 599.3 -159.1 591.1 -232.5 561.3C-305.8 531.4 -373 479.9 -418.1 418.1C-463.1 356.3 -486 284.3 -513.9 212.9C-541.8 141.5 -574.6 70.7 -607.5 0L0 0Z" fill="#aaadf7"></path><path d="M0 486C-63.6 479.4 -127.3 472.9 -186 449C-244.7 425.1 -298.4 383.9 -334.5 334.5C-370.5 285 -388.8 227.4 -411.1 170.3C-433.4 113.2 -459.7 56.6 -486 0L0 0Z" fill="#8f97f4"></path><path d="M0 364.5C-47.7 359.6 -95.5 354.7 -139.5 336.8C-183.5 318.8 -223.8 287.9 -250.8 250.8C-277.9 213.8 -291.6 170.6 -308.3 127.7C-325.1 84.9 -344.8 42.4 -364.5 0L0 0Z" fill="#7082f0"></path><path d="M0 243C-31.8 239.7 -63.6 236.4 -93 224.5C-122.3 212.6 -149.2 191.9 -167.2 167.2C-185.2 142.5 -194.4 113.7 -205.6 85.1C-216.7 56.6 -229.9 28.3 -243 0L0 0Z" fill="#476ded"></path><path d="M0 121.5C-15.9 119.9 -31.8 118.2 -46.5 112.3C-61.2 106.3 -74.6 96 -83.6 83.6C-92.6 71.3 -97.2 56.9 -102.8 42.6C-108.4 28.3 -114.9 14.1 -121.5 0L0 0Z" fill="#2563eb"></path></g><g transform="translate(0, 1080)"><path d="M0 -972C115.7 -928.6 231.4 -885.2 349.4 -843.5C467.4 -801.8 587.8 -761.9 684.5 -684.5C781.1 -607.1 854 -492.3 898 -372C942 -251.7 957 -125.8 972 0L0 0Z" fill="#f4f3fe"></path><path d="M0 -850.5C101.2 -812.5 202.4 -774.5 305.7 -738.1C409 -701.6 514.3 -666.6 598.9 -598.9C683.5 -531.2 747.3 -430.8 785.8 -325.5C824.2 -220.2 837.4 -110.1 850.5 0L0 0Z" fill="#dcdbfc"></path><path d="M0 -729C86.8 -696.4 173.5 -663.9 262 -632.6C350.6 -601.4 440.9 -571.4 513.4 -513.4C585.9 -455.3 640.5 -369.2 673.5 -279C706.5 -188.7 717.7 -94.4 729 0L0 0Z" fill="#c4c4fa"></path><path d="M0 -607.5C72.3 -580.4 144.6 -553.2 218.4 -527.2C292.1 -501.1 367.4 -476.2 427.8 -427.8C488.2 -379.4 533.8 -307.7 561.3 -232.5C588.7 -157.3 598.1 -78.6 607.5 0L0 0Z" fill="#aaadf7"></path><path d="M0 -486C57.8 -464.3 115.7 -442.6 174.7 -421.8C233.7 -400.9 293.9 -380.9 342.2 -342.2C390.6 -303.5 427 -246.1 449 -186C471 -125.8 478.5 -62.9 486 0L0 0Z" fill="#8f97f4"></path><path d="M0 -364.5C43.4 -348.2 86.8 -331.9 131 -316.3C175.3 -300.7 220.4 -285.7 256.7 -256.7C292.9 -227.7 320.3 -184.6 336.8 -139.5C353.2 -94.4 358.9 -47.2 364.5 0L0 0Z" fill="#7082f0"></path><path d="M0 -243C28.9 -232.1 57.8 -221.3 87.3 -210.9C116.9 -200.5 147 -190.5 171.1 -171.1C195.3 -151.8 213.5 -123.1 224.5 -93C235.5 -62.9 239.2 -31.5 243 0L0 0Z" fill="#476ded"></path><path d="M0 -121.5C14.5 -116.1 28.9 -110.6 43.7 -105.4C58.4 -100.2 73.5 -95.2 85.6 -85.6C97.6 -75.9 106.8 -61.5 112.3 -46.5C117.7 -31.5 119.6 -15.7 121.5 0L0 0Z" fill="#2563eb"></path></g></svg>